<svg id="Lager_1" data-name="Lager 1" xmlns="http://www.w3.org/2000/svg" xmlns:xlink="http://www.w3.org/1999/xlink" viewBox="0 0 398.19 95.2"><defs><style>.cls-1,.cls-4{fill:#30363a;}.cls-2{fill:url(#Namnlös_övertoning);}.cls-3,.cls-4{isolation:isolate;}.cls-4{font-size:16px;font-family:Raleway-ExtraBold, Raleway;font-weight:800;}.cls-5{letter-spacing:-0.01em;}.cls-6{letter-spacing:-0.03em;}</style><linearGradient id="Namnlös_övertoning" x1="171.46" y1="81.77" x2="172.05" y2="80.56" gradientTransform="matrix(23, 0, 0, -23, -3562.81, 1952.2)" gradientUnits="userSpaceOnUse"><stop offset="0" stop-color="#2882b6"/><stop offset="1" stop-color="#18a18d"/></linearGradient></defs><g id="logo-primary_pos" data-name="logo-primary pos"><path id="droids" class="cls-1" d="M64.2,95.2A50.12,50.12,0,0,0,73.8,94h0V74.8a4.59,4.59,0,0,1-3.36-1.5q-1-1.26-1-4.5h0V6.4H46.68V40.24a19.18,19.18,0,0,0-7.86-7.8A23.19,23.19,0,0,0,27.6,29.68a25.1,25.1,0,0,0-11.16,2.46A26.22,26.22,0,0,0,7.74,39,32.13,32.13,0,0,0,2,49.36a40,40,0,0,0-2,13A38.28,38.28,0,0,0,2.22,75.58,31.55,31.55,0,0,0,8.4,86a27.43,27.43,0,0,0,9.42,6.78,29.34,29.34,0,0,0,11.94,2.4,26.91,26.91,0,0,0,11.76-2.64,19.7,19.7,0,0,0,8.76-8.4h0l.48,2.28Q52.56,95.2,64.2,95.2ZM36,76a11.91,11.91,0,0,1-9.06-3.6q-3.42-3.6-3.42-9.6a15.94,15.94,0,0,1,.9-5.4A15.76,15.76,0,0,1,26.82,53a10.79,10.79,0,0,1,3.6-3A10,10,0,0,1,35,48.88a10.82,10.82,0,0,1,6.84,2.58,16.12,16.12,0,0,1,4.92,6.78h0V69.52Q42.24,76,36,76Zm69.38,19V57.56a14.62,14.62,0,0,1,8-4.8,46.55,46.55,0,0,1,12-1.44h0V30.8a20.07,20.07,0,0,0-2.88-.12A18.61,18.61,0,0,0,111.8,34.1a26.64,26.64,0,0,0-8.34,9.78h0v-12H82.58V95Zm57.62.2a38.42,38.42,0,0,0,14.88-2.7,32.21,32.21,0,0,0,10.86-7.2,29.72,29.72,0,0,0,6.6-10.44,35.85,35.85,0,0,0,0-24.84,29.72,29.72,0,0,0-6.6-10.44,32.21,32.21,0,0,0-10.86-7.2,42.52,42.52,0,0,0-29.82,0,32.35,32.35,0,0,0-10.8,7.2A29.72,29.72,0,0,0,130.66,50a35.85,35.85,0,0,0,0,24.84,29.72,29.72,0,0,0,6.6,10.44,32.35,32.35,0,0,0,10.8,7.2A38.31,38.31,0,0,0,163,95.2ZM163,76a10.15,10.15,0,0,1-8-3.6q-3.12-3.6-3.12-10t3.12-10a10.78,10.78,0,0,1,16.08,0q3.12,3.6,3.12,10T171,72.4A10.15,10.15,0,0,1,163,76Zm64.83,19V31.88H205V95Zm71.78.2a50.12,50.12,0,0,0,9.6-1.2h0V74.8a4.59,4.59,0,0,1-3.36-1.5q-1-1.26-1-4.5h0V6.4h-22.8V40.24a19.18,19.18,0,0,0-7.86-7.8A23.19,23.19,0,0,0,263,29.68a25.1,25.1,0,0,0-11.16,2.46,26.22,26.22,0,0,0-8.7,6.84,32.13,32.13,0,0,0-5.7,10.38,40,40,0,0,0-2,13,38.28,38.28,0,0,0,2.22,13.26A31.55,31.55,0,0,0,243.81,86a27.43,27.43,0,0,0,9.42,6.78,29.34,29.34,0,0,0,11.94,2.4,26.91,26.91,0,0,0,11.76-2.64,19.7,19.7,0,0,0,8.76-8.4h0l.48,2.28Q288,95.2,299.61,95.2ZM271.41,76a11.91,11.91,0,0,1-9.06-3.6q-3.42-3.6-3.42-9.6a15.94,15.94,0,0,1,.9-5.4,15.76,15.76,0,0,1,2.4-4.44,10.79,10.79,0,0,1,3.6-3,10,10,0,0,1,4.62-1.08,10.82,10.82,0,0,1,6.84,2.58,16.12,16.12,0,0,1,4.92,6.78h0V69.52Q277.65,76,271.41,76ZM344,95.2a38.64,38.64,0,0,0,11-1.44,23.77,23.77,0,0,0,8.28-4.2,18.49,18.49,0,0,0,5.22-6.6,20.41,20.41,0,0,0,1.8-8.76,17.83,17.83,0,0,0-1.2-6.78,13.51,13.51,0,0,0-4-5.28,30.15,30.15,0,0,0-7.5-4.32A86.56,86.56,0,0,0,346.07,54a33.12,33.12,0,0,1-7.56-2.58,3.36,3.36,0,0,1-1.92-2.94,2.65,2.65,0,0,1,1.32-2.46,6.53,6.53,0,0,1,3.36-.78,19.71,19.71,0,0,1,7.44,1.62,61.9,61.9,0,0,1,9.84,5.46h0l8.64-13.68a33.77,33.77,0,0,0-12.66-7.32,48,48,0,0,0-13.26-1.8,31.91,31.91,0,0,0-10.38,1.62,24,24,0,0,0-8.16,4.62,21.51,21.51,0,0,0-5.34,7.08,20.59,20.59,0,0,0-1.92,8.88,15,15,0,0,0,1.2,6.24,12.8,12.8,0,0,0,4,4.8,32.47,32.47,0,0,0,7.32,4,106.73,106.73,0,0,0,11.22,3.78,31.26,31.26,0,0,1,7.26,2.76,3.43,3.43,0,0,1,1.86,2.88q0,3-4.8,3a27.46,27.46,0,0,1-10-2.16A60,60,0,0,1,322.19,71h0l-7.8,13.68a36.73,36.73,0,0,0,13.44,7.86A49.88,49.88,0,0,0,344,95.2Z"/><g id="_5_th-element" data-name="5&apos;th-element"><circle id="Oval" class="cls-2" cx="386.69" cy="83.7" r="11.5"/></g><g id="_5_th-element-copy" data-name="5&apos;th-element-copy"><circle id="Oval-2" data-name="Oval" class="cls-1" cx="216.5" cy="14.38" r="12.5"/></g><g id="Group"><g id="agency" class="cls-3"><text class="cls-4" transform="translate(313.6 16.72)">agen<tspan class="cls-5" x="39.07" y="0">c</tspan><tspan class="cls-6" x="48.08" y="0">y</tspan></text></g><path id="_" data-name="®" class="cls-1" d="M377.9,10.83a6.38,6.38,0,0,0,2.29-.41A5.9,5.9,0,0,0,382,9.28a5.31,5.31,0,0,0,1.64-3.88,5.22,5.22,0,0,0-.44-2.14A5.33,5.33,0,0,0,382,1.54,6.06,6.06,0,0,0,380.19.41,6.38,6.38,0,0,0,377.9,0a6.3,6.3,0,0,0-2.29.41,5.75,5.75,0,0,0-1.79,1.13,5.43,5.43,0,0,0-1.18,1.72,5.38,5.38,0,0,0-.43,2.14,5.33,5.33,0,0,0,1.61,3.88,5.59,5.59,0,0,0,1.79,1.14A6.3,6.3,0,0,0,377.9,10.83Zm0-.82a4.91,4.91,0,0,1-1.9-.36,4.72,4.72,0,0,1-1.5-1,4.37,4.37,0,0,1-1-1.45,4.52,4.52,0,0,1-.36-1.8,4.55,4.55,0,0,1,1.34-3.24,4.67,4.67,0,0,1,1.5-1,4.91,4.91,0,0,1,1.9-.36,5,5,0,0,1,1.91.36,4.83,4.83,0,0,1,1.51,1,4.6,4.6,0,0,1,1,1.46,4.52,4.52,0,0,1,.36,1.8,4.6,4.6,0,0,1-.36,1.83,4.53,4.53,0,0,1-1,1.45,4.78,4.78,0,0,1-1.51.95A5.07,5.07,0,0,1,377.91,10Zm-.81-1.39V6.53h.63L379,8.62h1.87l-1.48-2.41a2,2,0,0,0,.78-.77,2.19,2.19,0,0,0,.3-1.1,2.13,2.13,0,0,0-.16-.81,2.28,2.28,0,0,0-1.12-1.22,2,2,0,0,0-.87-.19h-2.95v6.5Zm1.1-3.53h-1.1V3.59h1.07a.72.72,0,0,1,.46.16.7.7,0,0,1,.21.59.81.81,0,0,1-.18.57.62.62,0,0,1-.46.18Z"/></g></g></svg>